<?xml version="1.0" standalone="no"?>
<!DOCTYPE svg PUBLIC "-//W3C//DTD SVG 20010904//EN"
 "http://www.w3.org/TR/2001/REC-SVG-20010904/DTD/svg10.dtd">
<svg version="1.0" xmlns="http://www.w3.org/2000/svg"
 width="500.000000pt" height="500.000000pt" viewBox="0 0 500.000000 500.000000"
 preserveAspectRatio="xMidYMid meet">

<g transform="translate(0.000000,500.000000) scale(0.100000,-0.100000)"
fill="#000000" stroke="none">
<path d="M3360 4210 c0 -56 3 -70 15 -70 10 0 15 10 15 30 0 23 4 30 20 30 16
0 20 -7 20 -30 0 -20 5 -30 15 -30 12 0 15 14 15 70 0 56 -3 70 -15 70 -9 0
-15 -9 -15 -25 0 -18 -5 -25 -20 -25 -15 0 -20 7 -20 25 0 16 -6 25 -15 25
-12 0 -15 -14 -15 -70z"/>
<path d="M3165 4261 c-31 -7 -37 -26 -8 -26 13 0 20 -14 28 -57 8 -44 13 -56
23 -49 10 6 11 20 4 60 -8 46 -8 51 9 51 11 0 19 7 19 15 0 16 -22 18 -75 6z"/>
<path d="M3630 4262 c-50 -16 -68 -83 -31 -116 22 -20 72 -26 78 -8 3 7 -4 12
-19 12 -24 0 -48 16 -48 33 0 5 14 7 30 4 23 -5 30 -3 30 10 0 12 -7 14 -31 9
-33 -6 -37 9 -6 28 12 8 22 8 36 -1 18 -11 31 -8 31 8 0 11 -53 27 -70 21z"/>
<path d="M3967 4148 c-23 -95 -15 -150 16 -119 17 17 25 13 29 -11 5 -34 24
-32 68 8 27 24 40 44 38 57 -4 27 -28 35 -28 9 0 -10 -9 -27 -21 -38 l-20 -18
3 48 c2 33 -1 50 -9 53 -7 3 -13 -2 -13 -10 0 -8 -9 -25 -20 -38 l-21 -24 3
49 c3 51 -15 76 -25 34z"/>
<path d="M4185 3959 c-14 -18 -25 -39 -23 -47 4 -21 28 -27 28 -7 0 10 6 15
18 13 17 -4 18 -10 7 -40 -14 -37 24 -17 58 29 44 59 37 83 -22 83 -32 0 -44
-6 -66 -31z m78 5 c9 -10 -4 -34 -18 -34 -20 0 -30 21 -14 31 17 10 24 11 32
3z"/>
<path d="M2835 3900 c-23 -11 -52 -38 -69 -62 -24 -38 -27 -50 -23 -103 5 -73
41 -154 102 -228 l43 -53 -72 19 c-137 36 -294 6 -412 -79 -137 -97 -202 -238
-192 -411 3 -62 11 -94 37 -149 18 -38 39 -77 48 -86 14 -16 14 -18 -8 -27
-56 -22 -107 -70 -138 -132 -96 -192 31 -419 233 -419 101 0 158 34 318 194
158 157 205 186 303 186 103 -1 180 -51 231 -151 23 -47 25 -61 22 -138 -4
-105 -33 -173 -100 -243 -55 -56 -104 -82 -184 -99 -65 -13 -112 -7 -121 16
-8 23 4 57 29 85 84 92 56 233 -56 275 -106 41 -220 -39 -220 -155 0 -141 187
-262 361 -233 359 62 418 566 84 721 -52 24 -54 26 -35 41 44 36 113 133 134
188 44 119 36 261 -21 375 -30 60 -81 116 -182 201 -87 73 -79 108 36 178 115
70 114 225 -2 286 -54 28 -94 29 -146 3z m-67 -452 c60 -56 92 -204 92 -433 0
-156 -14 -265 -44 -340 -14 -36 -25 -44 -91 -74 l-76 -34 -26 24 c-14 13 -34
42 -44 65 -60 132 -67 531 -12 694 18 54 57 108 87 121 32 13 86 3 114 -23z
m-284 -849 c32 -15 76 -31 97 -34 21 -4 39 -10 39 -14 0 -3 -35 -24 -77 -45
-94 -46 -163 -56 -216 -31 -89 42 -105 171 -29 232 12 10 25 4 71 -34 31 -25
82 -58 115 -74z"/>
<path d="M4391 3830 c-6 -22 -21 -49 -33 -60 -17 -15 -19 -23 -10 -32 9 -9 17
-7 35 10 13 12 28 22 34 22 7 0 24 5 38 10 22 8 25 13 15 25 -9 11 -16 12 -30
2 -24 -14 -37 -3 -20 18 13 15 7 45 -8 45 -5 0 -14 -18 -21 -40z"/>
<path d="M4584 3528 c-33 -16 -47 -54 -32 -86 27 -56 131 -31 131 31 0 54 -48
80 -99 55z m65 -32 c20 -24 -4 -56 -40 -56 -37 0 -48 24 -24 50 21 24 48 26
64 6z"/>
<path d="M199 3473 c49 -32 27 9 325 -618 103 -214 186 -395 186 -401 0 -7
-18 -50 -40 -96 -22 -46 -43 -107 -46 -135 -14 -112 38 -216 129 -259 100 -46
209 -24 293 60 81 82 96 177 39 251 -34 46 -73 65 -130 65 -57 0 -96 -19 -130
-64 -51 -68 -44 -137 25 -220 61 -73 48 -114 -32 -103 -113 15 -198 137 -185
265 6 54 19 83 236 535 48 100 125 262 172 360 110 234 173 308 306 363 l58
24 -205 -1 c-156 0 -198 -3 -175 -11 68 -24 114 -101 99 -165 -4 -15 -45 -107
-92 -203 -46 -96 -96 -200 -109 -230 l-26 -55 -61 125 c-33 69 -104 215 -156
324 -52 109 -102 202 -112 207 -9 5 -106 9 -214 9 l-198 0 43 -27z"/>
<path d="M1555 3476 c-273 -69 -435 -356 -370 -659 29 -138 137 -288 251 -349
327 -176 705 81 704 478 -1 345 -287 604 -585 530z m151 -15 c70 -43 103 -171
111 -436 12 -406 -44 -605 -170 -605 -66 0 -117 97 -143 270 -23 158 -15 501
13 606 24 87 56 145 91 167 35 22 60 21 98 -2z"/>
<path d="M3643 3476 c-132 -31 -262 -116 -302 -199 -39 -81 -22 -172 43 -222
90 -68 220 -25 255 86 16 48 7 81 -41 156 -68 106 -43 155 90 175 167 26 346
-41 393 -148 18 -39 18 -47 5 -77 -27 -66 -117 -114 -380 -203 -273 -93 -361
-146 -424 -253 -22 -37 -26 -57 -26 -115 -1 -81 20 -130 76 -182 102 -96 276
-109 412 -29 47 28 68 32 65 13 -4 -33 2 -56 17 -62 20 -8 384 45 384 56 0 4
-6 8 -14 8 -8 0 -26 14 -40 31 l-26 31 0 341 c-1 188 -5 361 -9 385 -16 83
-93 159 -201 197 -63 23 -201 28 -277 11z m167 -686 c0 -256 -1 -270 -19 -280
-75 -39 -174 24 -206 132 -29 100 -8 226 51 304 29 38 136 114 161 114 10 0
13 -50 13 -270z"/>
<path d="M4673 3302 c-33 -9 -53 -20 -53 -30 0 -11 7 -13 30 -8 26 5 32 2 42
-19 6 -14 14 -25 18 -25 17 0 19 15 5 37 -14 21 -14 23 5 23 15 0 22 -8 27
-30 3 -17 11 -29 17 -27 21 7 -4 98 -26 96 -7 -1 -37 -8 -65 -17z"/>
<path d="M4721 2953 c-39 -4 -42 -6 -37 -26 3 -12 6 -32 6 -44 0 -13 6 -23 13
-23 9 0 12 9 9 29 -4 27 -2 28 43 34 26 4 51 4 56 1 5 -3 9 4 9 15 0 22 -1 22
-99 14z"/>
<path d="M4680 2740 c0 -20 1 -21 112 -24 12 -1 23 4 25 11 3 7 -13 14 -44 18
-26 3 -58 8 -70 11 -18 3 -23 0 -23 -16z"/>
<path d="M4657 2604 c-14 -14 -7 -24 18 -24 22 0 25 -4 25 -36 0 -24 4 -34 13
-31 6 2 12 16 12 30 -1 29 2 31 24 18 11 -7 11 -15 3 -40 -9 -25 -8 -31 3 -31
12 0 35 55 35 86 0 6 -15 14 -32 17 -18 3 -47 9 -63 12 -17 4 -33 3 -38 -1z"/>
<path d="M4586 2378 c-17 -23 -22 -68 -8 -68 4 0 13 14 19 30 18 48 83 37 83
-15 0 -12 -5 -26 -12 -33 -20 -20 1 -26 22 -7 11 10 20 30 20 45 0 60 -91 95
-124 48z"/>
<path d="M4632 2340 c-16 -26 -15 -30 3 -30 19 0 31 28 19 40 -6 6 -14 2 -22
-10z"/>
<path d="M340 1485 c0 -176 2 -205 15 -205 8 0 963 0 2123 0 l2107 0 3 205 2
205 -2125 0 -2125 0 0 -205z m1617 123 c11 -14 73 -183 73 -199 0 -20 -37 -8
-48 16 -9 19 -19 25 -42 25 -23 0 -31 -5 -36 -25 -4 -18 -13 -25 -31 -25 -20
0 -24 4 -18 18 4 9 17 46 30 82 45 128 50 136 72 108z m775 -94 c20 -54 37
-102 37 -106 1 -5 -10 -8 -24 -8 -18 0 -25 5 -25 19 0 38 -65 43 -82 6 -10
-23 -48 -36 -48 -17 0 11 58 170 71 194 18 33 33 14 71 -88z m1028 -6 c37
-106 37 -108 16 -108 -12 0 -25 9 -31 23 -7 15 -20 23 -42 25 -28 3 -33 -1
-39 -22 -4 -19 -13 -26 -30 -26 l-23 0 26 68 c14 37 32 86 40 110 23 66 40 52
83 -70z m-3013 42 c9 -33 19 -60 23 -60 4 0 13 27 20 60 17 81 38 78 64 -10
21 -71 20 -71 46 28 8 31 16 42 30 42 11 0 20 -3 20 -7 0 -4 -14 -52 -32 -105
-38 -118 -57 -129 -78 -43 -7 31 -16 58 -20 60 -4 2 -14 -23 -24 -56 -24 -87
-42 -78 -77 41 -34 114 -34 110 -9 110 16 0 23 -12 37 -60z m305 38 c2 -13 2
-60 0 -105 -3 -74 -6 -83 -23 -83 -18 0 -19 8 -19 105 0 97 1 105 19 105 13 0
21 -8 23 -22z m188 6 c0 -9 -9 -18 -20 -21 -18 -5 -20 -14 -20 -89 0 -83 0
-84 -25 -84 -25 0 -25 1 -25 85 0 67 -3 85 -14 85 -8 0 -18 5 -21 10 -13 21 8
30 66 30 47 0 59 -3 59 -16z m100 -27 c0 -42 1 -43 35 -45 l35 -3 0 46 c0 38
3 45 20 45 19 0 20 -7 20 -105 0 -98 -1 -105 -20 -105 -17 0 -20 7 -20 45 0
45 0 45 -35 45 -35 0 -35 0 -35 -45 0 -38 -3 -45 -20 -45 -19 0 -20 7 -20 105
0 98 1 105 20 105 17 0 20 -7 20 -43z m351 31 c1 -7 0 -23 -1 -35 -2 -34 15
-28 40 12 16 25 29 35 47 35 28 0 29 4 -24 -68 l-23 -29 41 -57 40 -56 -28 0
c-22 0 -34 9 -53 40 -14 22 -28 40 -32 40 -4 0 -6 -18 -4 -40 3 -36 1 -40 -20
-40 -24 0 -24 1 -24 105 0 98 1 105 20 105 11 0 20 -6 21 -12z m453 -53 c10
-36 22 -63 25 -60 4 2 16 31 26 65 14 45 23 60 37 60 24 0 23 -4 -13 -107 -34
-95 -48 -118 -60 -106 -7 7 -79 197 -79 208 0 3 10 5 23 5 19 0 25 -10 41 -65z
m216 -40 c0 -98 -1 -105 -20 -105 -19 0 -20 7 -20 105 0 98 1 105 20 105 19 0
20 -7 20 -105z m180 89 c0 -9 -9 -18 -20 -21 -18 -5 -20 -14 -20 -89 0 -77 -2
-84 -20 -84 -18 0 -20 7 -20 85 0 78 -2 85 -20 85 -13 0 -20 7 -20 20 0 18 7
20 60 20 48 0 60 -3 60 -16z m520 -4 c0 -13 -7 -20 -20 -20 -18 0 -20 -7 -20
-85 0 -78 -2 -85 -20 -85 -18 0 -20 7 -20 84 0 75 -2 84 -20 89 -11 3 -20 12
-20 21 0 13 12 16 60 16 53 0 60 -2 60 -20z m170 0 c26 -26 26 -62 0 -85 -20
-18 -20 -18 5 -62 l26 -43 -24 0 c-16 0 -29 11 -45 38 l-22 37 0 -37 c0 -31
-4 -38 -19 -38 -18 0 -20 9 -23 105 l-3 105 43 0 c29 0 48 -6 62 -20z m132 -2
c2 -13 2 -60 0 -105 -3 -74 -6 -83 -23 -83 -18 0 -19 8 -19 105 0 97 1 105 19
105 13 0 21 -8 23 -22z m180 5 c21 -19 25 -82 6 -101 -7 -7 -25 -12 -40 -12
-26 0 -28 -3 -28 -40 0 -33 -3 -40 -20 -40 -19 0 -20 7 -20 105 l0 105 42 0
c24 0 49 -7 60 -17z m428 1 c0 -9 -9 -18 -20 -21 -18 -5 -20 -14 -20 -89 0
-83 0 -84 -25 -84 -25 0 -25 1 -25 84 0 75 -2 84 -20 89 -11 3 -20 12 -20 21
0 13 12 16 65 16 53 0 65 -3 65 -16z m100 -30 c0 -45 0 -45 33 -42 30 3 32 6
35 46 3 34 7 42 23 42 18 0 19 -8 19 -105 0 -98 -1 -105 -20 -105 -17 0 -20 7
-20 45 0 45 0 45 -35 45 -35 0 -35 0 -35 -45 0 -38 -3 -45 -19 -45 -17 0 -20
9 -23 78 -4 110 -1 132 23 132 16 0 19 -7 19 -46z m230 -59 c0 -98 -1 -105
-20 -105 -19 0 -20 7 -20 105 0 98 1 105 20 105 19 0 20 -7 20 -105z"/>
<path d="M1931 1517 c-14 -37 -14 -37 9 -37 21 0 24 12 10 45 -7 19 -9 18 -19
-8z"/>
<path d="M2666 1518 c-9 -35 -8 -38 15 -38 16 0 19 4 14 23 -11 35 -22 41 -29
15z"/>
<path d="M3691 1510 c-9 -28 -8 -30 14 -30 22 0 23 2 14 30 -6 17 -12 30 -14
30 -2 0 -8 -13 -14 -30z"/>
<path d="M3170 1545 c0 -28 24 -34 34 -9 8 20 -1 34 -20 34 -8 0 -14 -10 -14
-25z"/>
<path d="M3486 1573 c-3 -4 -6 -19 -6 -35 0 -39 34 -35 38 3 3 25 -18 46 -32
32z"/>
</g>
</svg>
