<svg xmlns="http://www.w3.org/2000/svg" xmlns:xlink="http://www.w3.org/1999/xlink" width="450" zoomAndPan="magnify" viewBox="0 0 337.5 149.999998" height="200" preserveAspectRatio="xMidYMid meet" version="1.0"><defs><g/><clipPath id="2383e48bb5"><path d="M 0 0.109375 L 337 0.109375 L 337 149.886719 L 0 149.886719 Z M 0 0.109375 " clip-rule="nonzero"/></clipPath><clipPath id="7f66b54882"><path d="M 59.328125 105.289062 L 250.746094 105.289062 L 250.746094 117.347656 L 59.328125 117.347656 Z M 59.328125 105.289062 " clip-rule="nonzero"/></clipPath></defs><g clip-path="url(#2383e48bb5)"><path fill="#ffffff" d="M 0 0.109375 L 337 0.109375 L 337 149.890625 L 0 149.890625 Z M 0 0.109375 " fill-opacity="1" fill-rule="nonzero"/><path fill="#ffffff" d="M 0 0.109375 L 337 0.109375 L 337 149.890625 L 0 149.890625 Z M 0 0.109375 " fill-opacity="1" fill-rule="nonzero"/></g><g clip-path="url(#7f66b54882)"><path fill="#ffffff" d="M 59.328125 105.289062 L 250.746094 105.289062 L 250.746094 117.347656 L 59.328125 117.347656 Z M 59.328125 105.289062 " fill-opacity="1" fill-rule="nonzero"/></g><g fill="#ffffff" fill-opacity="1"><g transform="translate(59.327309, 85.764652)"><g><path d="M 22.328125 -7.316406 C 21.679688 -14.742188 8.78125 -17.9375 9.214844 -23.683594 C 9.375 -25.960938 10.894531 -26.988281 12.789062 -26.71875 C 18.046875 -26.015625 19.621094 -20.867188 20.269531 -17.613281 C 20.378906 -17.613281 20.539062 -17.613281 20.539062 -17.613281 L 20.539062 -26.394531 L 20.269531 -26.394531 C 20 -26.121094 19.511719 -25.851562 18.914062 -25.796875 C 16.585938 -25.636719 14.957031 -27.152344 11.054688 -27.152344 C 7.046875 -27.152344 1.898438 -25.148438 1.898438 -20.8125 C 1.898438 -13.222656 15.609375 -8.996094 15.609375 -3.578125 C 15.609375 -1.625 14.035156 -0.0546875 12.085938 -0.0546875 C 11 -0.0546875 10.460938 -0.109375 9.753906 -0.214844 C 8.671875 -0.378906 7.75 -1.191406 7.75 -2.003906 C 7.75 -3.414062 10.296875 -3.847656 10.296875 -6.773438 C 10.296875 -9.050781 8.402344 -10.949219 6.070312 -10.949219 C 3.792969 -10.949219 1.898438 -9.050781 1.898438 -6.773438 C 1.898438 -2.765625 6.558594 0.269531 12.085938 0.269531 C 17.722656 0.269531 22.652344 -3.035156 22.328125 -7.316406 Z M 22.328125 -7.316406 "/></g></g></g><g fill="#ffffff" fill-opacity="1"><g transform="translate(80.409298, 85.764652)"><g><path d="M 25.960938 -2.980469 L 25.960938 -19.726562 C 25.960938 -28.886719 16.691406 -27.964844 11.707031 -25.472656 L 11.707031 -36.960938 C 11.707031 -37.503906 11.328125 -37.9375 10.785156 -37.9375 C 10.730469 -37.9375 10.675781 -37.9375 10.621094 -37.9375 L 1.355469 -36.582031 L 1.355469 -36.257812 C 2.601562 -36.039062 3.578125 -34.902344 3.578125 -33.601562 L 3.578125 -2.980469 C 3.578125 -1.679688 2.601562 -0.542969 1.355469 -0.324219 L 1.355469 0 L 13.929688 0 L 13.929688 -0.324219 C 12.683594 -0.542969 11.707031 -1.679688 11.707031 -2.980469 L 11.707031 -25.09375 C 12.03125 -25.253906 14.308594 -26.339844 16.964844 -26.339844 C 19.132812 -26.339844 20.648438 -25.636719 20.648438 -24.441406 C 20.648438 -22.4375 17.832031 -21.734375 17.832031 -18.96875 L 17.832031 -2.980469 C 17.832031 -1.679688 16.855469 -0.542969 15.609375 -0.324219 L 15.609375 0 L 28.183594 0 L 28.183594 -0.324219 C 26.9375 -0.542969 25.960938 -1.679688 25.960938 -2.980469 Z M 25.960938 -2.980469 "/></g></g></g><g fill="#ffffff" fill-opacity="1"><g transform="translate(106.748267, 85.764652)"><g><path d="M 3.578125 -2.980469 C 3.578125 -1.679688 2.601562 -0.542969 1.355469 -0.324219 L 1.355469 0 L 13.929688 0 L 13.929688 -0.324219 C 12.683594 -0.542969 11.707031 -1.679688 11.707031 -2.980469 L 11.707031 -25.6875 C 11.707031 -26.230469 11.328125 -26.609375 10.785156 -26.609375 C 10.730469 -26.609375 10.675781 -26.609375 10.621094 -26.609375 L 1.355469 -25.253906 L 1.355469 -24.929688 C 2.601562 -24.714844 3.578125 -23.628906 3.578125 -22.273438 Z M 11.867188 -33.710938 C 11.867188 -36.039062 9.972656 -37.9375 7.640625 -37.9375 C 5.3125 -37.9375 3.46875 -36.039062 3.46875 -33.710938 C 3.46875 -31.433594 5.3125 -29.539062 7.640625 -29.539062 C 9.972656 -29.539062 11.867188 -31.433594 11.867188 -33.710938 Z M 11.867188 -33.710938 "/></g></g></g><g fill="#ffffff" fill-opacity="1"><g transform="translate(118.833771, 85.764652)"><g><path d="M 23.304688 -24.875 C 22.652344 -26.285156 21.191406 -27.261719 19.566406 -27.261719 C 17.234375 -27.261719 15.335938 -25.363281 15.335938 -23.035156 C 15.335938 -20.757812 17.234375 -18.859375 19.566406 -18.859375 C 20.539062 -18.859375 21.082031 -19.238281 22.003906 -19.238281 C 23.46875 -19.238281 23.628906 -17.992188 23.304688 -16.203125 C 22.707031 -12.574219 21.351562 -9.050781 19.347656 -6.179688 C 18.101562 -4.445312 16.746094 -2.980469 15.285156 -1.949219 C 14.417969 -1.300781 13.117188 -0.703125 12.03125 -0.597656 C 10.082031 -0.488281 8.886719 -1.355469 8.886719 -2.546875 C 8.886719 -4.550781 11.707031 -5.257812 11.707031 -8.019531 L 11.707031 -25.6875 C 11.707031 -26.230469 11.328125 -26.609375 10.785156 -26.609375 C 10.730469 -26.609375 10.675781 -26.609375 10.621094 -26.609375 L 1.355469 -25.253906 L 1.355469 -24.929688 C 2.601562 -24.714844 3.578125 -23.628906 3.578125 -22.273438 L 3.578125 -7.371094 C 3.578125 -2.332031 6.179688 0.269531 9.863281 0.269531 C 17.019531 0.269531 24.007812 -9.539062 24.007812 -20.59375 C 24.007812 -21.894531 23.953125 -23.574219 23.304688 -24.875 Z M 23.304688 -24.875 "/></g></g></g><g fill="#ffffff" fill-opacity="1"><g transform="translate(141.54163, 85.764652)"><g><path d="M 24.171875 -4.066406 L 24.171875 -20.433594 C 24.171875 -23.085938 22.382812 -24.929688 20.324219 -25.960938 C 18.265625 -27.042969 15.554688 -27.421875 12.734375 -26.988281 C 8.886719 -26.449219 3.632812 -23.628906 3.632812 -19.402344 C 3.632812 -17.070312 5.472656 -15.230469 7.804688 -15.230469 C 10.132812 -15.230469 12.03125 -17.070312 12.03125 -19.402344 C 12.03125 -21.894531 9.703125 -22.601562 9.703125 -24.605469 C 9.703125 -25.742188 10.839844 -26.394531 12.789062 -26.664062 C 15.445312 -27.097656 18.046875 -26.71875 20.160156 -25.6875 C 21.894531 -24.820312 23.359375 -23.25 23.359375 -21.785156 C 23.359375 -17.613281 10.675781 -15.769531 6.015625 -12.84375 C 3.035156 -11 1.300781 -7.804688 2.167969 -4.714844 C 2.980469 -1.679688 6.015625 0.269531 9.429688 0.269531 C 12.464844 0.269531 14.6875 -1.082031 15.988281 -2.058594 L 15.988281 -0.703125 C 15.988281 -0.164062 16.421875 0.269531 16.964844 0.269531 C 17.019531 0.269531 17.070312 0.269531 17.070312 0.269531 L 26.394531 -1.082031 L 26.394531 -1.410156 C 25.148438 -1.625 24.171875 -2.765625 24.171875 -4.066406 Z M 15.988281 -2.4375 C 14.796875 -1.570312 12.953125 -1.898438 11.761719 -3.199219 C 10.621094 -4.445312 9.972656 -6.449219 10.132812 -9.050781 C 10.460938 -13.601562 13.765625 -15.335938 15.988281 -16.367188 Z M 15.988281 -2.4375 "/></g></g></g><g fill="#ffffff" fill-opacity="1"><g transform="translate(166.092146, 85.764652)"><g><path d="M 21.679688 -26.609375 L 21.679688 -26.285156 C 23.46875 -26.121094 24.875 -24.550781 24.875 -22.707031 C 24.875 -22.167969 24.769531 -21.625 24.550781 -21.136719 L 19.078125 -9.648438 L 11.488281 -25.527344 C 11.164062 -26.175781 10.515625 -26.609375 9.539062 -26.609375 L 0.269531 -26.609375 L 0.269531 -26.285156 C 1.300781 -26.175781 2.4375 -25.203125 2.925781 -24.226562 L 14.46875 0 L 12.789062 3.523438 C 11.109375 6.992188 12.355469 11.054688 15.5 12.574219 C 19.457031 14.417969 24.769531 11.109375 24.769531 6.992188 C 24.769531 4.660156 22.871094 2.765625 20.539062 2.765625 C 18.265625 2.765625 16.367188 4.660156 16.367188 6.992188 C 16.367188 9.484375 18.914062 10.40625 18.914062 11.816406 C 18.914062 12.355469 18.589844 12.789062 17.992188 12.789062 C 17.179688 12.789062 16.367188 12.628906 15.664062 12.300781 C 12.683594 10.839844 11.488281 6.992188 13.0625 3.632812 L 24.550781 -20.433594 C 25.851562 -23.085938 28.996094 -25.90625 31.976562 -26.285156 L 31.976562 -26.609375 Z M 21.679688 -26.609375 "/></g></g></g><g fill="#ffffff" fill-opacity="1"><g transform="translate(195.140896, 85.764652)"><g><path d="M 14.253906 -27.152344 C 7.425781 -27.152344 1.898438 -21.027344 1.898438 -13.441406 C 1.898438 -5.851562 7.425781 0.269531 14.253906 0.269531 C 21.082031 0.269531 26.609375 -5.851562 26.609375 -13.441406 C 26.609375 -21.027344 21.082031 -27.152344 14.253906 -27.152344 Z M 14.253906 -0.0546875 C 11.542969 -0.0546875 10.027344 -4.550781 10.027344 -13.441406 C 10.027344 -22.382812 11.542969 -26.828125 14.253906 -26.828125 C 16.964844 -26.828125 18.425781 -22.382812 18.425781 -13.441406 C 18.425781 -4.550781 16.964844 -0.0546875 14.253906 -0.0546875 Z M 14.253906 -0.0546875 "/></g></g></g><g fill="#ffffff" fill-opacity="1"><g transform="translate(220.450144, 85.764652)"><g><path d="M 22.816406 -5.851562 C 25.742188 -8.019531 27.585938 -11.433594 27.585938 -15.230469 C 27.585938 -19.402344 25.472656 -22.980469 22.113281 -25.148438 C 21.027344 -25.851562 20.160156 -26.773438 20.160156 -27.695312 C 20.160156 -28.507812 20.8125 -29.265625 22.003906 -29.753906 C 23.574219 -30.457031 24.769531 -31.921875 24.769531 -33.710938 C 24.769531 -36.039062 22.925781 -37.9375 20.59375 -37.9375 C 18.265625 -37.9375 16.367188 -36.039062 16.367188 -33.710938 C 16.367188 -30.511719 18.644531 -27.695312 20.433594 -26.070312 C 18.859375 -26.773438 17.070312 -27.152344 15.230469 -27.152344 C 8.402344 -27.152344 2.871094 -21.839844 2.871094 -15.230469 C 2.871094 -12.464844 3.847656 -9.917969 5.527344 -7.914062 C 2.65625 -7.046875 0.542969 -4.226562 0.542969 -0.921875 C 0.542969 3.144531 3.632812 6.394531 7.480469 6.394531 C 14.089844 6.394531 16.636719 -3.414062 23.035156 -3.414062 C 26.664062 -3.414062 29.644531 -0.324219 29.644531 3.523438 C 29.644531 8.671875 25.6875 12.789062 20.867188 12.789062 C 19.78125 12.789062 19.1875 12.519531 19.1875 11.652344 C 19.1875 11.109375 19.621094 10.460938 20.105469 9.972656 C 20.867188 9.214844 21.300781 8.128906 21.300781 6.992188 C 21.300781 4.660156 19.457031 2.765625 17.125 2.765625 C 14.796875 2.765625 12.898438 4.660156 12.898438 6.992188 C 12.898438 10.296875 16.691406 13.117188 20.867188 13.117188 C 25.851562 13.117188 29.96875 8.835938 29.96875 3.523438 C 29.96875 -1.03125 26.882812 -4.878906 22.816406 -5.851562 Z M 15.230469 -26.828125 C 17.992188 -26.828125 19.457031 -22.980469 19.457031 -15.230469 C 19.457031 -10.621094 18.914062 -7.371094 17.886719 -5.527344 C 16.691406 -5.09375 15.5 -4.5 14.308594 -3.792969 C 12.195312 -4.605469 11.054688 -8.453125 11.054688 -15.230469 C 11.054688 -22.980469 12.519531 -26.828125 15.230469 -26.828125 Z M 3.902344 -4.605469 C 3.902344 -5.90625 4.605469 -7.046875 5.691406 -7.695312 C 7.640625 -5.417969 10.460938 -3.847656 13.65625 -3.414062 C 11.488281 -2.222656 9.484375 -1.03125 7.480469 -1.03125 C 5.527344 -1.03125 3.902344 -2.65625 3.902344 -4.605469 Z M 3.902344 -4.605469 "/></g></g></g><g fill="#ffffff" fill-opacity="1"><g transform="translate(186.764387, 36.095809)"><g><path d="M -2.636719 -5.753906 L -1.933594 -4.300781 C -1.777344 -4.710938 -1.355469 -4.988281 -1.066406 -5.128906 L -0.640625 -5.332031 L 1.214844 -1.496094 C 1.355469 -1.203125 1.441406 -0.84375 1.363281 -0.660156 L 3.105469 -1.5 C 2.910156 -1.554688 2.6875 -1.839844 2.542969 -2.132812 L 0.6875 -5.976562 L 1.128906 -6.191406 C 1.417969 -6.332031 1.894531 -6.488281 2.316406 -6.355469 L 1.613281 -7.808594 Z M -2.636719 -5.753906 "/></g></g></g><g fill="#ffffff" fill-opacity="1"><g transform="translate(195.858489, 32.159597)"><g><path d="M 1.988281 -0.558594 C 1.808594 -0.644531 1.632812 -0.96875 1.546875 -1.285156 L 1.054688 -3.027344 L 2.710938 -3.492188 L 3.203125 -1.742188 C 3.289062 -1.429688 3.308594 -1.066406 3.199219 -0.898438 L 5.0625 -1.421875 C 4.882812 -1.507812 4.707031 -1.832031 4.621094 -2.148438 L 3.351562 -6.664062 C 3.261719 -6.976562 3.242188 -7.347656 3.351562 -7.515625 L 1.488281 -6.992188 C 1.667969 -6.90625 1.839844 -6.585938 1.929688 -6.269531 L 2.390625 -4.628906 L 0.738281 -4.164062 L 0.277344 -5.800781 C 0.1875 -6.113281 0.167969 -6.484375 0.277344 -6.648438 L -1.585938 -6.125 C -1.40625 -6.042969 -1.234375 -5.722656 -1.144531 -5.40625 L 0.128906 -0.878906 C 0.214844 -0.566406 0.234375 -0.203125 0.125 -0.0351562 Z M 1.988281 -0.558594 "/></g></g></g><g fill="#ffffff" fill-opacity="1"><g transform="translate(205.888309, 29.795763)"><g><path d="M 3.359375 -0.210938 C 4.285156 -0.296875 5.085938 -0.632812 5.535156 -1.234375 C 5.265625 -1.75 4.996094 -2.421875 4.996094 -2.421875 C 4.996094 -2.421875 4.613281 -1.589844 3.484375 -1.488281 C 2.902344 -1.433594 2.339844 -1.605469 1.949219 -2.015625 C 1.613281 -2.632812 2.21875 -2.984375 3.011719 -3.054688 C 3.519531 -3.101562 4.054688 -2.929688 4.335938 -2.730469 L 4.203125 -4.175781 C 4.082031 -4.359375 3.609375 -4.488281 3.210938 -4.453125 C 2.171875 -4.355469 1.527344 -3.433594 1.699219 -2.34375 C 1.542969 -2.597656 1.441406 -2.917969 1.40625 -3.304688 C 1.28125 -4.648438 2.109375 -5.390625 3.117188 -5.484375 C 4.246094 -5.585938 4.773438 -4.839844 4.773438 -4.839844 C 4.773438 -4.839844 4.914062 -5.550781 5.085938 -6.105469 C 4.53125 -6.613281 3.6875 -6.792969 2.757812 -6.707031 C 0.859375 -6.53125 -0.226562 -4.964844 -0.0625 -3.175781 C 0.101562 -1.386719 1.457031 -0.0351562 3.359375 -0.210938 Z M 3.359375 -0.210938 "/></g></g></g><g fill="#ffffff" fill-opacity="1"><g transform="translate(216.463846, 29.340828)"><g/></g></g><g fill="#ffffff" fill-opacity="1"><g transform="translate(223.348024, 29.908493)"><g><path d="M 1.558594 -6.132812 C 1.863281 -5.558594 1.871094 -4.921875 1.933594 -4.125 C 2.085938 -2.21875 2.113281 -1.28125 2.222656 0.539062 L 3.402344 0.828125 C 3.910156 0.324219 4.550781 -0.324219 5.113281 -1.042969 C 5.148438 -0.339844 5.191406 0.359375 5.242188 1.273438 L 6.421875 1.5625 C 7.4375 0.554688 8.960938 -1 9.359375 -2.644531 C 9.660156 -3.871094 9.183594 -4.277344 9.183594 -4.277344 L 7.746094 -4.628906 C 7.746094 -4.628906 8.15625 -3.996094 7.871094 -2.808594 C 7.683594 -2.039062 7.101562 -1.035156 6.609375 -0.707031 C 6.574219 -1.5 6.460938 -3.152344 6.4375 -4.023438 C 6.464844 -4.75 6.164062 -5.011719 6.164062 -5.011719 L 4.726562 -5.363281 C 4.726562 -5.363281 5.136719 -4.730469 4.851562 -3.542969 C 4.664062 -2.773438 4.082031 -1.769531 3.589844 -1.441406 C 3.542969 -2.554688 3.328125 -4.644531 3.453125 -5.152344 C 3.496094 -5.324219 3.609375 -5.484375 3.789062 -5.589844 Z M 1.558594 -6.132812 "/></g></g></g><g fill="#ffffff" fill-opacity="1"><g transform="translate(236.195838, 33.719004)"><g><path d="M 0.621094 0.296875 L 2.261719 1.074219 C 2.121094 0.40625 2.152344 -0.238281 2.386719 -0.957031 L 3.972656 -0.199219 L 3.511719 0.769531 C 3.371094 1.066406 3.148438 1.351562 2.953125 1.40625 L 4.699219 2.238281 C 4.621094 2.054688 4.707031 1.695312 4.847656 1.398438 L 7.007812 -3.144531 C 6.988281 -3.542969 6.496094 -4.023438 5.945312 -4.285156 C 4.023438 -5.203125 2.132812 -3.953125 1.359375 -2.324219 C 0.898438 -1.359375 0.738281 -0.679688 0.621094 0.296875 Z M 2.925781 -2.078125 C 3.417969 -2.804688 4.3125 -3.570312 5.347656 -3.074219 L 4.507812 -1.324219 Z M 2.925781 -2.078125 "/></g></g></g><g fill="#ffffff" fill-opacity="1"><g transform="translate(245.204558, 38.474761)"><g><path d="M 3.761719 -5.085938 C 3.859375 -4.839844 3.808594 -4.519531 3.746094 -4.136719 C 3.511719 -2.636719 3.339844 -1.929688 3.089844 -0.566406 L 2.238281 0.609375 C 2.046875 0.875 1.769531 1.121094 1.570312 1.136719 L 3.140625 2.273438 C 3.09375 2.078125 3.238281 1.746094 3.429688 1.480469 L 4.277344 0.3125 C 5.492188 -0.355469 6.113281 -0.738281 7.460938 -1.429688 C 7.808594 -1.609375 8.09375 -1.757812 8.359375 -1.742188 L 6.433594 -3.136719 C 6.445312 -2.886719 6.378906 -2.75 6.273438 -2.605469 C 5.972656 -2.191406 4.996094 -1.570312 4.5 -1.25 C 4.648438 -1.839844 4.933594 -2.960938 5.234375 -3.375 C 5.339844 -3.515625 5.449219 -3.625 5.691406 -3.691406 Z M 3.761719 -5.085938 "/></g></g></g><g fill="#ffffff" fill-opacity="1"><g transform="translate(253.607833, 45.214336)"><g/></g></g><g fill="#ffffff" fill-opacity="1"><g transform="translate(258.372352, 50.247386)"><g><path d="M 2.6875 -1.675781 C 1.238281 -0.617188 0.582031 0.964844 1.800781 2.636719 C 3.023438 4.3125 4.730469 4.171875 6.179688 3.113281 C 7.636719 2.050781 8.292969 0.46875 7.074219 -1.207031 C 5.851562 -2.882812 4.144531 -2.738281 2.6875 -1.675781 Z M 3.5625 -0.488281 C 4.453125 -1.136719 5.4375 -1.304688 6.046875 -0.464844 C 6.664062 0.382812 6.207031 1.265625 5.316406 1.914062 C 4.433594 2.5625 3.445312 2.730469 2.824219 1.882812 C 2.214844 1.046875 2.679688 0.15625 3.5625 -0.488281 Z M 3.5625 -0.488281 "/></g></g></g><g fill="#ffffff" fill-opacity="1"><g transform="translate(264.602166, 59.664367)"><g><path d="M 0.886719 1.863281 C 0.941406 1.671875 1.226562 1.449219 1.523438 1.308594 L 2.773438 0.710938 C 3.183594 0.507812 3.703125 1.371094 3.804688 1.582031 C 4.125 2.253906 4.089844 2.625 4.003906 2.960938 L 5.335938 2.324219 C 5.449219 2.109375 5.394531 1.703125 5.222656 1.339844 C 4.894531 0.652344 4.246094 0.285156 3.59375 0.320312 L 5.378906 -0.527344 L 6.222656 1.246094 C 6.359375 1.539062 6.515625 2.015625 6.382812 2.4375 L 7.839844 1.742188 L 5.769531 -2.601562 C 5.714844 -2.410156 5.421875 -2.183594 5.128906 -2.042969 L 0.894531 -0.0273438 C 0.597656 0.113281 0.238281 0.199219 0.0546875 0.117188 Z M 0.886719 1.863281 "/></g></g></g><g fill="#ffffff" fill-opacity="1"><g transform="translate(268.480382, 68.929546)"><g/></g></g><g fill="#ffffff" fill-opacity="1"><g transform="translate(270.259552, 75.64779)"><g><path d="M 0.0195312 0.128906 L 0.699219 4.636719 L 2.296875 4.394531 C 1.949219 4.121094 1.808594 3.640625 1.761719 3.320312 L 1.507812 1.628906 L 5.726562 0.992188 C 6.050781 0.941406 6.414062 0.964844 6.566406 1.097656 L 6.277344 -0.816406 C 6.167969 -0.648438 5.824219 -0.515625 5.5 -0.46875 L 0.863281 0.234375 C 0.539062 0.28125 0.171875 0.257812 0.0195312 0.128906 Z M 0.0195312 0.128906 "/></g></g></g><g fill="#ffffff" fill-opacity="1"><g transform="translate(271.262782, 85.385707)"><g><path d="M 0 0.132812 L 0.00390625 2.066406 C 0.136719 1.914062 0.488281 1.835938 0.816406 1.835938 L 5.519531 1.824219 C 5.847656 1.824219 6.199219 1.902344 6.332031 2.050781 L 6.328125 0.117188 C 6.195312 0.269531 5.835938 0.347656 5.507812 0.347656 L 0.820312 0.359375 C 0.492188 0.359375 0.132812 0.28125 0 0.132812 Z M 0 0.132812 "/></g></g></g><g fill="#ffffff" fill-opacity="1"><g transform="translate(271.010341, 92.554201)"><g><path d="M -0.304688 2.042969 C -0.152344 1.914062 0.207031 1.886719 0.53125 1.9375 L 1.902344 2.140625 C 2.355469 2.203125 2.304688 3.207031 2.269531 3.433594 C 2.160156 4.175781 1.925781 4.464844 1.667969 4.691406 L 3.125 4.910156 C 3.339844 4.792969 3.523438 4.425781 3.582031 4.027344 C 3.695312 3.277344 3.363281 2.609375 2.800781 2.273438 L 4.753906 2.566406 L 4.464844 4.511719 C 4.417969 4.828125 4.277344 5.3125 3.933594 5.585938 L 5.527344 5.824219 L 6.238281 1.0625 C 6.085938 1.195312 5.71875 1.21875 5.394531 1.171875 L 0.757812 0.476562 C 0.433594 0.429688 0.0898438 0.296875 -0.0195312 0.128906 Z M -0.304688 2.042969 "/></g></g></g><g fill="#ffffff" fill-opacity="1"><g transform="translate(269.124388, 102.370107)"><g><path d="M -1.175781 3.152344 C -1.472656 4.035156 -1.492188 4.902344 -1.125 5.558594 C -0.546875 5.519531 0.175781 5.550781 0.175781 5.550781 C 0.175781 5.550781 -0.425781 4.863281 -0.0625 3.789062 C 0.125 3.234375 0.511719 2.792969 1.046875 2.601562 C 1.746094 2.546875 1.820312 3.242188 1.566406 3.996094 C 1.402344 4.476562 1.023438 4.898438 0.726562 5.074219 L 2.101562 5.539062 C 2.320312 5.503906 2.628906 5.125 2.757812 4.746094 C 3.09375 3.757812 2.511719 2.792969 1.449219 2.507812 C 1.742188 2.46875 2.078125 2.507812 2.445312 2.628906 C 3.722656 3.066406 4.0625 4.121094 3.738281 5.078125 C 3.375 6.152344 2.476562 6.332031 2.476562 6.332031 C 2.476562 6.332031 3.066406 6.75 3.503906 7.132812 C 4.195312 6.832031 4.703125 6.132812 5.003906 5.25 C 5.617188 3.445312 4.625 1.8125 2.925781 1.234375 C 1.222656 0.65625 -0.5625 1.347656 -1.175781 3.152344 Z M -1.175781 3.152344 "/></g></g></g><g fill="#000000" fill-opacity="1"><g transform="translate(65.683493, 115.111352)"><g><path d="M 1.578125 -7.640625 L 2.90625 -4.984375 L 4.375 -7.640625 L 6.109375 -7.640625 L 3.703125 -3.515625 L 3.703125 0 L 2.203125 0 L 2.203125 -3.515625 L -0.15625 -7.640625 Z M 1.578125 -7.640625 "/></g></g></g><g fill="#000000" fill-opacity="1"><g transform="translate(73.517303, 115.111352)"><g><path d="M 0.1875 -3.828125 C 0.1875 -4.597656 0.34375 -5.285156 0.65625 -5.890625 C 0.976562 -6.503906 1.425781 -6.984375 2 -7.328125 C 2.582031 -7.671875 3.238281 -7.84375 3.96875 -7.84375 C 4.707031 -7.84375 5.363281 -7.664062 5.9375 -7.3125 C 6.519531 -6.957031 6.96875 -6.472656 7.28125 -5.859375 C 7.59375 -5.253906 7.75 -4.578125 7.75 -3.828125 C 7.75 -3.054688 7.585938 -2.363281 7.265625 -1.75 C 6.941406 -1.132812 6.492188 -0.65625 5.921875 -0.3125 C 5.359375 0.03125 4.707031 0.203125 3.96875 0.203125 C 3.238281 0.203125 2.585938 0.0351562 2.015625 -0.296875 C 1.453125 -0.628906 1.003906 -1.109375 0.671875 -1.734375 C 0.347656 -2.359375 0.1875 -3.054688 0.1875 -3.828125 Z M 3.953125 -6.375 C 3.316406 -6.375 2.785156 -6.128906 2.359375 -5.640625 C 1.929688 -5.160156 1.71875 -4.578125 1.71875 -3.890625 C 1.71875 -3.128906 1.921875 -2.5 2.328125 -2 C 2.734375 -1.507812 3.28125 -1.265625 3.96875 -1.265625 C 4.65625 -1.265625 5.195312 -1.507812 5.59375 -2 C 6 -2.5 6.203125 -3.128906 6.203125 -3.890625 C 6.203125 -4.578125 5.988281 -5.160156 5.5625 -5.640625 C 5.132812 -6.128906 4.597656 -6.375 3.953125 -6.375 Z M 3.953125 -6.375 "/></g></g></g><g fill="#000000" fill-opacity="1"><g transform="translate(83.327076, 115.111352)"><g><path d="M 5.625 -5.3125 C 5.46875 -5.65625 5.234375 -5.941406 4.921875 -6.171875 C 4.617188 -6.410156 4.269531 -6.53125 3.875 -6.53125 C 3.4375 -6.53125 3.050781 -6.394531 2.71875 -6.125 C 2.394531 -5.863281 2.144531 -5.523438 1.96875 -5.109375 C 1.800781 -4.703125 1.71875 -4.265625 1.71875 -3.796875 C 1.71875 -3.046875 1.921875 -2.410156 2.328125 -1.890625 C 2.734375 -1.367188 3.253906 -1.109375 3.890625 -1.109375 C 4.347656 -1.109375 4.742188 -1.273438 5.078125 -1.609375 C 5.421875 -1.953125 5.601562 -2.363281 5.625 -2.84375 L 4 -2.84375 L 4 -4.0625 L 7.296875 -4.0625 L 7.296875 -3.859375 C 7.296875 -3.066406 7.15625 -2.363281 6.875 -1.75 C 6.601562 -1.132812 6.203125 -0.65625 5.671875 -0.3125 C 5.148438 0.03125 4.535156 0.203125 3.828125 0.203125 C 3.117188 0.203125 2.484375 0.0234375 1.921875 -0.328125 C 1.367188 -0.691406 0.941406 -1.175781 0.640625 -1.78125 C 0.335938 -2.394531 0.1875 -3.066406 0.1875 -3.796875 C 0.1875 -4.546875 0.34375 -5.226562 0.65625 -5.84375 C 0.96875 -6.457031 1.410156 -6.941406 1.984375 -7.296875 C 2.554688 -7.660156 3.203125 -7.84375 3.921875 -7.84375 C 4.566406 -7.84375 5.148438 -7.6875 5.671875 -7.375 C 6.203125 -7.070312 6.625 -6.625 6.9375 -6.03125 Z M 5.625 -5.3125 "/></g></g></g><g fill="#000000" fill-opacity="1"><g transform="translate(92.701126, 115.111352)"><g><path d="M 4.046875 -7.84375 L 6.953125 0 L 5.359375 0 L 4.765625 -1.609375 L 2.109375 -1.609375 L 1.484375 0 L -0.09375 0 L 2.890625 -7.84375 Z M 2.53125 -2.828125 L 4.34375 -2.828125 L 3.390625 -5.609375 L 3.375 -5.609375 Z M 2.53125 -2.828125 "/></g></g></g><g fill="#000000" fill-opacity="1"><g transform="translate(101.436788, 115.111352)"><g/></g></g><g fill="#000000" fill-opacity="1"><g transform="translate(106.25091, 115.111352)"><g><path d="M 5.390625 -7.75 L 6.96875 -2.4375 L 6.984375 -2.4375 L 8.484375 -7.640625 L 10.046875 -7.640625 L 7.46875 0.15625 L 6.375 0.15625 L 4.84375 -4.84375 L 4.828125 -4.84375 L 3.390625 0.15625 L 2.296875 0.15625 L -0.140625 -7.640625 L 1.421875 -7.640625 L 2.96875 -2.4375 L 2.984375 -2.4375 L 4.5 -7.75 Z M 5.390625 -7.75 "/></g></g></g><g fill="#000000" fill-opacity="1"><g transform="translate(118.036652, 115.111352)"><g><path d="M 2.03125 -7.640625 L 2.03125 0 L 0.546875 0 L 0.546875 -7.640625 Z M 2.03125 -7.640625 "/></g></g></g><g fill="#000000" fill-opacity="1"><g transform="translate(122.496113, 115.111352)"><g><path d="M 4.578125 -7.640625 L 4.578125 -6.34375 L 3.03125 -6.34375 L 3.03125 0 L 1.546875 0 L 1.546875 -6.34375 L 0 -6.34375 L 0 -7.640625 Z M 4.578125 -7.640625 "/></g></g></g><g fill="#000000" fill-opacity="1"><g transform="translate(128.951807, 115.111352)"><g><path d="M 2.03125 -7.640625 L 2.03125 -4.640625 L 4.796875 -4.640625 L 4.796875 -7.640625 L 6.28125 -7.640625 L 6.28125 0 L 4.796875 0 L 4.796875 -3.421875 L 2.03125 -3.421875 L 2.03125 0 L 0.546875 0 L 0.546875 -7.640625 Z M 2.03125 -7.640625 "/></g></g></g><g fill="#000000" fill-opacity="1"><g transform="translate(137.667197, 115.111352)"><g/></g></g><g fill="#000000" fill-opacity="1"><g transform="translate(142.481319, 115.111352)"><g><path d="M 2.03125 -7.640625 L 2.03125 -4.421875 L 2.0625 -4.421875 L 4.421875 -7.640625 L 6.25 -7.640625 L 3.359375 -4.109375 L 6.421875 0 L 4.5 0 L 2.0625 -3.4375 L 2.03125 -3.4375 L 2.03125 0 L 0.546875 0 L 0.546875 -7.640625 Z M 2.03125 -7.640625 "/></g></g></g><g fill="#000000" fill-opacity="1"><g transform="translate(150.64952, 115.111352)"><g><path d="M 4.046875 -7.84375 L 6.953125 0 L 5.359375 0 L 4.765625 -1.609375 L 2.109375 -1.609375 L 1.484375 0 L -0.09375 0 L 2.890625 -7.84375 Z M 2.53125 -2.828125 L 4.34375 -2.828125 L 3.390625 -5.609375 L 3.375 -5.609375 Z M 2.53125 -2.828125 "/></g></g></g><g fill="#000000" fill-opacity="1"><g transform="translate(159.38518, 115.111352)"><g><path d="M 1.453125 -7.640625 L 3.296875 -2.5 L 3.3125 -2.5 L 5.015625 -7.640625 L 6.625 -7.640625 L 3.65625 0.203125 L 2.78125 0.203125 L -0.140625 -7.640625 Z M 1.453125 -7.640625 "/></g></g></g><g fill="#000000" fill-opacity="1"><g transform="translate(167.745909, 115.111352)"><g><path d="M 2.03125 -7.640625 L 2.03125 0 L 0.546875 0 L 0.546875 -7.640625 Z M 2.03125 -7.640625 "/></g></g></g><g fill="#000000" fill-opacity="1"><g transform="translate(172.20537, 115.111352)"><g><path d="M 4.578125 -7.640625 L 4.578125 -6.34375 L 3.03125 -6.34375 L 3.03125 0 L 1.546875 0 L 1.546875 -6.34375 L 0 -6.34375 L 0 -7.640625 Z M 4.578125 -7.640625 "/></g></g></g><g fill="#000000" fill-opacity="1"><g transform="translate(178.661064, 115.111352)"><g><path d="M 4.046875 -7.84375 L 6.953125 0 L 5.359375 0 L 4.765625 -1.609375 L 2.109375 -1.609375 L 1.484375 0 L -0.09375 0 L 2.890625 -7.84375 Z M 2.53125 -2.828125 L 4.34375 -2.828125 L 3.390625 -5.609375 L 3.375 -5.609375 Z M 2.53125 -2.828125 "/></g></g></g><g fill="#000000" fill-opacity="1"><g transform="translate(187.39673, 115.111352)"><g/></g></g><g fill="#000000" fill-opacity="1"><g transform="translate(192.210852, 115.111352)"><g><path d="M 4.578125 -7.640625 L 4.578125 -6.34375 L 3.03125 -6.34375 L 3.03125 0 L 1.546875 0 L 1.546875 -6.34375 L 0 -6.34375 L 0 -7.640625 Z M 4.578125 -7.640625 "/></g></g></g><g fill="#000000" fill-opacity="1"><g transform="translate(198.666553, 115.111352)"><g><path d="M 2.609375 -7.640625 C 3.410156 -7.640625 4.03125 -7.441406 4.46875 -7.046875 C 4.90625 -6.648438 5.125 -6.082031 5.125 -5.34375 C 5.125 -4.800781 4.972656 -4.328125 4.671875 -3.921875 C 4.378906 -3.523438 4.007812 -3.289062 3.5625 -3.21875 L 5.71875 0 L 3.921875 0 L 2.0625 -3.078125 L 2.03125 -3.078125 L 2.03125 0 L 0.546875 0 L 0.546875 -7.640625 Z M 2.03125 -4.125 L 2.203125 -4.125 C 2.710938 -4.125 3.078125 -4.21875 3.296875 -4.40625 C 3.515625 -4.59375 3.625 -4.890625 3.625 -5.296875 C 3.625 -5.703125 3.515625 -5.988281 3.296875 -6.15625 C 3.085938 -6.332031 2.726562 -6.421875 2.21875 -6.421875 L 2.03125 -6.421875 Z M 2.03125 -4.125 "/></g></g></g><g fill="#000000" fill-opacity="1"><g transform="translate(206.206507, 115.111352)"><g><path d="M 2.03125 -7.640625 L 2.03125 0 L 0.546875 0 L 0.546875 -7.640625 Z M 2.03125 -7.640625 "/></g></g></g><g fill="#000000" fill-opacity="1"><g transform="translate(210.665968, 115.111352)"><g><path d="M 2.625 -7.640625 C 3.488281 -7.640625 4.132812 -7.441406 4.5625 -7.046875 C 5 -6.648438 5.21875 -6.054688 5.21875 -5.265625 C 5.21875 -4.460938 5.003906 -3.859375 4.578125 -3.453125 C 4.148438 -3.054688 3.566406 -2.859375 2.828125 -2.859375 L 2.03125 -2.859375 L 2.03125 0 L 0.546875 0 L 0.546875 -7.640625 Z M 2.03125 -4.09375 L 2.359375 -4.09375 C 2.828125 -4.09375 3.164062 -4.171875 3.375 -4.328125 C 3.59375 -4.492188 3.703125 -4.8125 3.703125 -5.28125 C 3.703125 -5.695312 3.597656 -5.988281 3.390625 -6.15625 C 3.179688 -6.320312 2.847656 -6.40625 2.390625 -6.40625 L 2.03125 -6.40625 Z M 2.03125 -4.09375 "/></g></g></g><g fill="#000000" fill-opacity="1"><g transform="translate(217.901926, 115.111352)"><g><path d="M 4.046875 -7.84375 L 6.953125 0 L 5.359375 0 L 4.765625 -1.609375 L 2.109375 -1.609375 L 1.484375 0 L -0.09375 0 L 2.890625 -7.84375 Z M 2.53125 -2.828125 L 4.34375 -2.828125 L 3.390625 -5.609375 L 3.375 -5.609375 Z M 2.53125 -2.828125 "/></g></g></g><g fill="#000000" fill-opacity="1"><g transform="translate(226.637593, 115.111352)"><g><path d="M 4.578125 -7.640625 L 4.578125 -6.34375 L 3.03125 -6.34375 L 3.03125 0 L 1.546875 0 L 1.546875 -6.34375 L 0 -6.34375 L 0 -7.640625 Z M 4.578125 -7.640625 "/></g></g></g><g fill="#000000" fill-opacity="1"><g transform="translate(233.093293, 115.111352)"><g><path d="M 2.03125 -7.640625 L 2.03125 -4.640625 L 4.796875 -4.640625 L 4.796875 -7.640625 L 6.28125 -7.640625 L 6.28125 0 L 4.796875 0 L 4.796875 -3.421875 L 2.03125 -3.421875 L 2.03125 0 L 0.546875 0 L 0.546875 -7.640625 Z M 2.03125 -7.640625 "/></g></g></g><g fill="#000000" fill-opacity="1"><g transform="translate(241.808691, 115.111352)"><g><path d="M 2.03125 -7.640625 L 2.03125 0 L 0.546875 0 L 0.546875 -7.640625 Z M 2.03125 -7.640625 "/></g></g></g></svg>